# xmcd
#
# Track frame offsets:
#	150
#	23610
#	47360
#	77135
#	96270
#	122705
#	145487
#	165267
#	188997
#	207332
#	231985
#
# Disc length: 3427 seconds
#
# Revision: 1
# Processed by: cddbd v1.4PL0 Copyright (c) Steve Scherf et al.
# Submitted via: audiograbber 1.80
#
DISCID=8d0d610b
DTITLE=James F Twyman and Jim Wilson - Ecclesia Vol1
DYEAR=1900
DGENRE=
TTITLE0=Guru Mary Mataii
TTITLE1=Top Of The Mountain
TTITLE2=Shanti Puia
TTITLE3=The Temple Doors
TTITLE4=Be Free Now
TTITLE5=When We Loved
TTITLE6=The Children of God
TTITLE7=On This Earth
TTITLE8=Peace and Love
TTITLE9=You Are the One
TTITLE10=A Breath of Life
EXTD=
EXTT0=
EXTT1=
EXTT2=
EXTT3=
EXTT4=
EXTT5=
EXTT6=
EXTT7=
EXTT8=
EXTT9=
EXTT10=
PLAYORDER=
